<svg width="1366" height="1648" viewBox="0 0 1366 1648" fill="none" xmlns="http://www.w3.org/2000/svg">
<circle cx="1288" cy="1136" r="2" fill="#ABB2BF"/>
<circle cx="1312.75" cy="1136" r="2" fill="#ABB2BF"/>
<circle cx="1337.5" cy="1136" r="2" fill="#ABB2BF"/>
<circle cx="1362.25" cy="1136" r="2" fill="#ABB2BF"/>
<circle cx="1288" cy="1160.75" r="2" fill="#ABB2BF"/>
<circle cx="1312.75" cy="1160.75" r="2" fill="#ABB2BF"/>
<circle cx="1337.5" cy="1160.75" r="2" fill="#ABB2BF"/>
<circle cx="1362.25" cy="1160.75" r="2" fill="#ABB2BF"/>
<circle cx="1288" cy="1185.5" r="2" fill="#ABB2BF"/>
<circle cx="1312.75" cy="1185.5" r="2" fill="#ABB2BF"/>
<circle cx="1337.5" cy="1185.5" r="2" fill="#ABB2BF"/>
<circle cx="1362.25" cy="1185.5" r="2" fill="#ABB2BF"/>
<circle cx="1288" cy="1210.25" r="2" fill="#ABB2BF"/>
<circle cx="1312.75" cy="1210.25" r="2" fill="#ABB2BF"/>
<circle cx="1337.5" cy="1210.25" r="2" fill="#ABB2BF"/>
<circle cx="1362.25" cy="1210.25" r="2" fill="#ABB2BF"/>
<circle cx="1288" cy="1235" r="2" fill="#ABB2BF"/>
<circle cx="1312.75" cy="1235" r="2" fill="#ABB2BF"/>
<circle cx="1337.5" cy="1235" r="2" fill="#ABB2BF"/>
<circle cx="1362.25" cy="1235" r="2" fill="#ABB2BF"/>
<circle cx="0.5" cy="1547" r="2" fill="#ABB2BF"/>
<circle cx="25.25" cy="1547" r="2" fill="#ABB2BF"/>
<circle cx="50" cy="1547" r="2" fill="#ABB2BF"/>
<circle cx="0.5" cy="1571.75" r="2" fill="#ABB2BF"/>
<circle cx="25.25" cy="1571.75" r="2" fill="#ABB2BF"/>
<circle cx="50" cy="1571.75" r="2" fill="#ABB2BF"/>
<circle cx="0.5" cy="1596.5" r="2" fill="#ABB2BF"/>
<circle cx="25.25" cy="1596.5" r="2" fill="#ABB2BF"/>
<circle cx="50" cy="1596.5" r="2" fill="#ABB2BF"/>
<circle cx="0.5" cy="1621.25" r="2" fill="#ABB2BF"/>
<circle cx="25.25" cy="1621.25" r="2" fill="#ABB2BF"/>
<circle cx="50" cy="1621.25" r="2" fill="#ABB2BF"/>
<circle cx="0.5" cy="1646" r="2" fill="#ABB2BF"/>
<circle cx="25.25" cy="1646" r="2" fill="#ABB2BF"/>
<circle cx="50" cy="1646" r="2" fill="#ABB2BF"/>
<circle cx="23.5" cy="147" r="2" fill="#ABB2BF"/>
<circle cx="49.75" cy="147" r="2" fill="#ABB2BF"/>
<circle cx="76" cy="147" r="2" fill="#ABB2BF"/>
<circle cx="23.5" cy="162" r="2" fill="#ABB2BF"/>
<circle cx="49.75" cy="162" r="2" fill="#ABB2BF"/>
<circle cx="76" cy="162" r="2" fill="#ABB2BF"/>
<circle cx="23.5" cy="177" r="2" fill="#ABB2BF"/>
<circle cx="49.75" cy="177" r="2" fill="#ABB2BF"/>
<circle cx="76" cy="177" r="2" fill="#ABB2BF"/>
<circle cx="23.5" cy="192" r="2" fill="#ABB2BF"/>
<circle cx="49.75" cy="192" r="2" fill="#ABB2BF"/>
<circle cx="76" cy="192" r="2" fill="#ABB2BF"/>
<rect x="-76.5" y="965.5" width="154" height="154" stroke="#ABB2BF"/>
<rect x="1298.5" y="0.5" width="154" height="154" stroke="#ABB2BF"/>
</svg>
