<svg width="46" height="46" viewBox="0 0 46 46" fill="none" xmlns="http://www.w3.org/2000/svg">
<path d="M34.2782 10.878C31.9986 9.77999 29.5931 8.99632 27.1217 8.54652C27.0993 8.54257 27.0763 8.54598 27.0559 8.55631C27.0354 8.56663 27.0185 8.58335 27.0075 8.60418C26.6977 9.1807 26.3549 9.9348 26.1154 10.5252C23.4514 10.1009 20.7417 10.1009 18.0778 10.5252C17.8106 9.86751 17.5084 9.22616 17.1725 8.60418C17.1612 8.58358 17.1443 8.56705 17.1239 8.55676C17.1035 8.54647 17.0806 8.5429 17.0582 8.54652C14.5863 8.99391 12.1803 9.77799 9.90174 10.878C9.88225 10.8858 9.86594 10.9005 9.8556 10.9195C5.29847 18.0661 4.04822 25.0375 4.66126 31.9212C4.66346 31.9535 4.68323 31.9858 4.7074 32.0066C7.3611 34.0696 10.3293 35.6448 13.4855 36.6649C13.5078 36.6723 13.5317 36.672 13.5538 36.6641C13.576 36.6563 13.5951 36.6412 13.6085 36.6211C14.2853 35.6525 14.8873 34.6309 15.4059 33.5563C15.4167 33.5341 15.4204 33.5089 15.4165 33.4844C15.4125 33.4599 15.4011 33.4374 15.3839 33.4202C15.3726 33.409 15.3591 33.4003 15.3444 33.3948C14.3977 33.013 13.4809 32.5542 12.6022 32.0227C12.5776 32.0081 12.5594 31.9842 12.5512 31.9558C12.543 31.9275 12.5455 31.8969 12.5582 31.8705C12.5657 31.8533 12.577 31.8383 12.5912 31.8267C12.7758 31.6814 12.9603 31.5292 13.1361 31.377C13.1517 31.3639 13.1703 31.3555 13.19 31.3526C13.2098 31.3498 13.2299 31.3526 13.2482 31.3609C19.0028 34.119 25.2321 34.119 30.9164 31.3609C30.9354 31.3522 30.9563 31.3492 30.9768 31.352C30.9973 31.3549 31.0167 31.3635 31.0329 31.377C31.2087 31.5292 31.3932 31.6814 31.5778 31.8267C31.5928 31.8382 31.6048 31.8533 31.6128 31.8709C31.6208 31.8884 31.6245 31.9078 31.6236 31.9272C31.6227 31.9466 31.6173 31.9655 31.6078 31.9822C31.5982 31.9988 31.5849 32.0128 31.569 32.0227C30.6923 32.5591 29.7743 33.0173 28.8246 33.3925C28.8095 33.3983 28.7957 33.4075 28.7843 33.4194C28.7729 33.4314 28.7642 33.4458 28.7587 33.4617C28.7536 33.4771 28.7516 33.4935 28.7527 33.5097C28.7538 33.526 28.7581 33.5418 28.7653 33.5563C29.2926 34.6286 29.8969 35.6525 30.5605 36.6211C30.5739 36.6412 30.593 36.6563 30.6151 36.6641C30.6373 36.672 30.6612 36.6723 30.6835 36.6649C33.845 35.648 36.818 34.0726 39.4748 32.0066C39.4881 31.9969 39.4991 31.9842 39.5071 31.9694C39.5151 31.9547 39.5198 31.9382 39.5209 31.9212C40.2548 23.9629 38.2926 17.0491 34.3222 10.9218C34.3182 10.9117 34.3122 10.9026 34.3046 10.895C34.2971 10.8875 34.2881 10.8817 34.2782 10.878V10.878ZM16.265 27.7287C14.5314 27.7287 13.1054 26.0591 13.1054 24.0113C13.1054 21.9612 14.505 20.2915 16.265 20.2915C18.0382 20.2915 19.4511 21.975 19.4247 24.0113C19.4247 26.0591 18.025 27.7287 16.265 27.7287ZM27.9457 27.7287C26.2143 27.7287 24.786 26.0591 24.786 24.0113C24.786 21.9612 26.1857 20.2915 27.9457 20.2915C29.7189 20.2915 31.1339 21.975 31.1054 24.0113C31.1054 26.0591 29.7189 27.7287 27.9457 27.7287Z" fill="#ABB2BF"/>
</svg>
