<svg width="46" height="46" viewBox="0 0 46 46" fill="none" xmlns="http://www.w3.org/2000/svg">
<path d="M7.42944 13.2998C7.63325 12.4197 8.13425 11.6339 8.85041 11.0711C9.56656 10.5083 10.4554 10.2018 11.3714 10.2019H35.6295C36.5455 10.2018 37.4343 10.5083 38.1505 11.0711C38.8666 11.6339 39.3676 12.4197 39.5714 13.2998L23.5004 22.9799L7.42944 13.2998ZM7.32837 15.5749V29.7276L19.0592 22.6393L7.32837 15.5749ZM20.9958 23.8087L7.71448 31.8313C8.04262 32.5132 8.56053 33.0893 9.20793 33.4924C9.85533 33.8955 10.6056 34.1092 11.3714 34.1084H35.6295C36.3952 34.1086 37.1451 33.8945 37.7922 33.491C38.4392 33.0876 38.9567 32.5113 39.2844 31.8293L26.0031 23.8067L23.5004 25.3148L20.9958 23.8067V23.8087ZM27.9417 22.6413L39.6725 29.7276V15.5749L27.9417 22.6393V22.6413Z" fill="#ABB2BF"/>
</svg>
